{"title":"Jim.Jefferies.Bare.2014.AVI.BRRip.720p.DivX.NLsub.{Th3Sp3cialist","uid":11011134,"size":1743876055,"categoryP":"video","categoryS":"other","magnet":"?xt=urn:btih:05d6d6c022b276b34235b17e0671e3f03aa7bc18&amp;dn=Jim.Jefferies.Bare.2014.AVI.BRRip.720p.DivX.NLsub.%7BTh3Sp3cialist&amp;tr=udp%3A%2F%2Ftracker.openbittorrent.com%3A80&amp;tr=udp%3A%2F%2Fopen.demonii.com%3A1337&amp;tr=udp%3A%2F%2Ftracker.coppersurfer.tk%3A6969&amp;tr=udp%3A%2F%2Fexodus.desync.com%3A6969","seeders":1,"leechers":1,"uploader":"HOLLANDmovies","files":-1,"time":1410362005,"description":"INFO\n\nJim Jefferies: BARE (2014)\nVideo Comedy - 29 August 2014 (Netherlands)\n\nDirector: Shannon Hartman\nWriter: Jim Jefferies \n\nGENERAL:\n\nComplete name : Jim.Jefferies.Bare.2014.AVI.BRRip.720p.DivX.NLsub.{Th3Sp3cialist}.avi\nFormat : AVI\nFormat/Info : Audio Video Interleave\nFormat profile : OpenDML\nFile size : 1.61 GiB\nDuration : 1h 16mn\nOverall bit rate : 3 012 Kbps\n\nVideo\nID : 0\nFormat : xvid\nCodec ID : xvid\nDuration : 1h 16mn\nBit rate : 2 805 Kbps\nWidth : 1 280 pixels\nHeight : 720 pixels\nDisplay aspect ratio : 16:9\nFrame rate : 30.000 fps\nBits/(Pixel*Frame) : 0.101\nStream size : 1.50 GiB (93%)\n\nAudio\nID : 1\nFormat : MPEG Audio\nFormat version : Version 1\nFormat profile : Layer 3\nMode : Joint stereo\nMode extension : MS Stereo\nCodec ID : 55\nCodec ID/Hint : MP3\nDuration : 1h 16mn\nBit rate mode : Constant\nBit rate : 192 Kbps\nChannel(s) : 2 channels\nSampling rate : 48.0 KHz\nCompression mode : Lossy\nStream size : 105 MiB (6%)\nAlignment : Aligned on interleaves\nInterleave, duration : 24 ms (0.72 video frame)\n &lt;a href=&quot;\nhttp://bayimg.com/PAAEKAAGF&quot; rel=&quot;nofollow&quot; target=&quot;_NEW&quot;&gt;\nhttp://bayimg.com/PAAEKAAGF&lt;/a&gt; &lt;a href=&quot;\nhttp://bayimg.com/paAemaAgF&quot; rel=&quot;nofollow&quot; target=&quot;_NEW&quot;&gt;\nhttp://bayimg.com/paAemaAgF&lt;/a&gt; &lt;a href=&quot;\nhttp://bayimg.com/paaenAAGF&quot; rel=&quot;nofollow&quot; target=&quot;_NEW&quot;&gt;\nhttp://bayimg.com/paaenAAGF&lt;/a&gt;\n","torrent":{"xt":"urn:btih:05d6d6c022b276b34235b17e0671e3f03aa7bc18","amp;dn":"Jim.Jefferies.Bare.2014.AVI.BRRip.720p.DivX.NLsub.%7BTh3Sp3cialist","amp;tr":["udp%3A%2F%2Ftracker.openbittorrent.com%3A80","udp%3A%2F%2Fopen.demonii.com%3A1337","udp%3A%2F%2Ftracker.coppersurfer.tk%3A6969","udp%3A%2F%2Fexodus.desync.com%3A6969"],"infoHash":"05d6d6c022b276b34235b17e0671e3f03aa7bc18","infoHashBuffer":{"type":"Buffer","data":[5,214,214,192,34,178,118,179,66,53,177,126,6,113,227,240,58,167,188,24]},"announce":[],"urlList":[]}}